HIERARCHY
ROOT Hips
{
	OFFSET	0.00	0.00	0.00
	CHANNELS 6 Xposition Yposition Zposition Zrotation Xrotation Yrotation
	JOINT LeftUpLeg
	{
		OFFSET	 0.126116	-0.014019	-0.065224
		CHANNELS 3 Zrotation Xrotation Yrotation
		JOINT LeftLeg
		{
			OFFSET	 0.000000	 0.000000	 0.569914
			CHANNELS 3 Zrotation Xrotation Yrotation
			JOINT LeftFoot
			{
				OFFSET	 0.000000	 0.000000	 0.544423
				CHANNELS 3 Zrotation Xrotation Yrotation
				JOINT LeftToeBase
				{
					OFFSET	 0.000000	 0.000000	 0.207117
					CHANNELS 3 Zrotation Xrotation Yrotation
					End Site
					{
						OFFSET	 0.000000	 0.000000	 0.207117
					}
				}
			}
		}
	}
	JOINT RightUpLeg
	{
		OFFSET	-0.124023	-0.008373	-0.065224
		CHANNELS 3 Zrotation Xrotation Yrotation
		JOINT RightLeg
		{
			OFFSET	 0.000000	 0.000000	 0.570047
			CHANNELS 3 Zrotation Xrotation Yrotation
			JOINT RightFoot
			{
				OFFSET	 0.000000	 0.000000	 0.544354
				CHANNELS 3 Zrotation Xrotation Yrotation
				JOINT RightToeBase
				{
					OFFSET	 0.000000	 0.000000	 0.207540
					CHANNELS 3 Zrotation Xrotation Yrotation
					End Site
					{
						OFFSET	 0.000000	 0.000000	 0.207540
					}
				}
			}
		}
	}
	JOINT Spine
	{
		OFFSET	 0.000184	-0.007763	 0.117403
		CHANNELS 3 Zrotation Xrotation Yrotation
		JOINT Spine1
		{
			OFFSET	 0.000000	 0.000000	 0.137269
			CHANNELS 3 Zrotation Xrotation Yrotation
			JOINT Spine2
			{
				OFFSET	 0.000000	 0.000000	 0.156879
				CHANNELS 3 Zrotation Xrotation Yrotation
				JOINT LeftShoulder
				{
					OFFSET	 0.080501	-0.002496	 0.160144
					CHANNELS 3 Zrotation Xrotation Yrotation
					JOINT LeftArm
					{
						OFFSET	 0.000000	 0.000000	 0.164363
						CHANNELS 3 Zrotation Xrotation Yrotation
						JOINT LeftForeArm
						{
							OFFSET	 0.000000	 0.000000	 0.364576
							CHANNELS 3 Zrotation Xrotation Yrotation
							JOINT LeftHand
							{
								OFFSET	 0.000000	 0.000000	 0.360812
								CHANNELS 3 Zrotation Xrotation Yrotation
								JOINT LeftHandIndex1
								{
									OFFSET	 0.000000	 0.000000	 0.086006
									CHANNELS 3 Zrotation Xrotation Yrotation
									JOINT LeftHandIndex2
									{
										OFFSET	 0.000000	 0.000000	 0.047236
										CHANNELS 3 Zrotation Xrotation Yrotation
										JOINT LeftHandIndex3
										{
											OFFSET	-0.004284	-0.000551	 0.038166
											CHANNELS 3 Zrotation Xrotation Yrotation
											End Site
											{
												OFFSET	-0.004284	-0.000551	 0.038166
											}
										}
									}
								}
							}
						}
					}
				}
				JOINT Neck
				{
					OFFSET	 0.000000	 0.000000	 0.176489
					CHANNELS 3 Zrotation Xrotation Yrotation
					JOINT Head
					{
						OFFSET	 0.000000	-0.001747	 0.077940
						CHANNELS 3 Zrotation Xrotation Yrotation
						End Site
						{
							OFFSET	 0.000000	-0.001747	 0.077940
						}
					}
				}
				JOINT RightShoulder
				{
					OFFSET	-0.080363	 0.000306	 0.159706
					CHANNELS 3 Zrotation Xrotation Yrotation
					JOINT RightArm
					{
						OFFSET	 0.000000	 0.000000	 0.164196
						CHANNELS 3 Zrotation Xrotation Yrotation
						JOINT RightForeArm
						{
							OFFSET	 0.000000	 0.000000	 0.365611
							CHANNELS 3 Zrotation Xrotation Yrotation
							JOINT RightHand
							{
								OFFSET	 0.000000	 0.000000	 0.360648
								CHANNELS 3 Zrotation Xrotation Yrotation
								JOINT RightHandIndex1
								{
									OFFSET	 0.000000	 0.000000	 0.069977
									CHANNELS 3 Zrotation Xrotation Yrotation
									JOINT RightHandIndex2
									{
										OFFSET	 0.000000	 0.000000	 0.052305
										CHANNELS 3 Zrotation Xrotation Yrotation
										JOINT RightHandIndex3
										{
											OFFSET	 0.009002	-0.000782	 0.042196
											CHANNELS 3 Zrotation Xrotation Yrotation
											End Site
											{
												OFFSET	 0.009002	-0.000782	 0.042196
											}
										}
									}
								}
							}
						}
					}
				}
			}
		}
	}
}
MOTION
Frames:    12
Frame Time: 0.03333334
-0.000386	 0.019815	 1.266812	 0.003709	 0.009069	-0.051334	-13.631590	-3.380791	-179.911500	 1.417151	-15.787600	-0.931982	-4.945578	 73.532520	-1.418226	-2.385833	 28.452760	 0.000004	 13.507500	-3.829748	-179.945800	-1.396304	-16.290720	 0.945613	 4.912521	 73.603090	 1.290400	 2.384658	 28.388730	 0.000004	 1.238079	 2.737637	 0.002606	 0.642652	 3.597859	 0.325108	-1.931086	-4.576950	-0.454309	-91.776210	 78.527430	-180.000000	 58.481110	 40.975200	-45.325680	-7.625454	 4.960811	-12.507120	-30.187370	-18.633590	-4.484164	-2.635965	 4.993658	 6.788941	-5.165319	 0.784187	 3.516649	-5.225038	 0.466231	 0.424329	-0.000002	-3.783157	-0.089647	-1.867400	 5.070368	 0.082674	 89.782140	 78.203890	 180.000000	 6.560127	 13.435490	 92.506170	-34.017170	-3.412544	 10.175970	 1.403693	-19.102600	-6.480613	 6.112037	 4.509576	-0.364401	 4.968462	 1.518543	-9.347576	 5.168945	 0.703820	 2.021906
-0.000391	 0.019818	 1.266851	 0.003706	 0.009065	-0.051342	-13.665120	-3.366529	-179.910100	 1.417632	-15.758580	-0.930180	-4.937241	 73.518560	-1.426988	-2.385833	 28.452760	 0.000004	 13.540970	-3.815928	-179.947000	-1.396777	-16.262810	 0.943901	 4.904932	 73.589580	 1.298327	 2.384658	 28.388730	 0.000004	 1.237916	 2.738068	 0.002613	 0.642551	 3.596402	 0.325157	-1.930810	-4.575085	-0.454234	-91.776160	 78.527450	 180.000000	 58.488630	 40.967900	-45.325360	-7.624751	 4.964020	-12.515420	-30.183050	-18.592160	-4.482888	-2.635965	 4.993658	 6.788941	-5.165319	 0.784187	 3.516649	-5.225038	 0.466231	 0.424329	-0.000002	-3.783157	-0.089647	-1.867157	 5.071268	 0.082678	 89.782200	 78.203920	 179.999900	 6.572495	 13.504260	 92.518670	-34.065570	-3.422955	 10.178420	 1.405308	-19.100100	-6.502596	 6.112037	 4.509576	-0.364401	 4.968462	 1.518543	-9.347576	 5.168945	 0.703820	 2.021906
-0.000397	 0.019144	 1.266845	 0.003711	 0.009065	-0.051329	-13.680720	-3.356797	-179.907200	 1.417699	-15.754920	-0.929953	-4.931287	 73.525050	-1.433504	-2.385833	 28.452760	 0.000004	 13.555040	-3.767808	-179.955200	-1.397272	-16.234280	 0.942154	 4.877957	 73.609980	 1.327747	 2.384658	 28.388730	 0.000004	 1.237730	 2.738545	 0.002607	 0.642443	 3.594756	 0.325125	-1.930501	-4.572995	-0.454115	-91.776150	 78.527450	 180.000000	 58.502580	 40.958150	-45.334170	-7.624590	 4.964437	-12.516450	-30.178980	-18.538990	-4.481553	-2.635965	 4.993658	 6.788941	-5.165319	 0.784187	 3.516649	-5.225038	 0.466231	 0.424329	-0.000002	-3.783157	-0.089647	-1.866886	 5.072258	 0.082682	 89.782140	 78.203870	 180.000000	 6.589184	 13.586050	 92.530250	-34.121280	-3.436514	 10.185190	 1.410246	-19.094390	-6.528286	 6.112037	 4.509576	-0.364401	 4.968462	 1.518543	-9.347576	 5.168945	 0.703820	 2.021906
-0.000404	 0.017792	 1.266793	 0.003706	 0.009063	-0.051297	-13.679850	-3.351537	-179.902500	 1.417334	-15.776580	-0.931297	-4.927640	 73.552020	-1.437852	-2.385833	 28.452760	 0.000004	 13.551200	-3.684834	-179.970400	-1.397786	-16.204210	 0.940313	 4.831000	 73.663870	 1.379251	 2.384658	 28.388730	 0.000004	 1.237519	 2.739088	 0.002594	 0.642319	 3.592887	 0.325075	-1.930133	-4.570618	-0.453975	-91.776150	 78.527430	 180.000000	 58.526340	 40.945510	-45.355640	-7.624976	 4.962492	-12.511460	-30.175100	-18.468090	-4.480056	-2.635965	 4.993658	 6.788941	-5.165319	 0.784187	 3.516649	-5.225038	 0.466231	 0.424329	-0.000002	-3.783157	-0.089647	-1.866570	 5.073378	 0.082687	 89.782130	 78.203870	 180.000000	 6.608075	 13.683540	 92.540420	-34.185970	-3.453310	 10.196420	 1.420235	-19.073090	-6.556119	 6.112037	 4.509576	-0.364401	 4.968462	 1.518543	-9.347576	 5.168945	 0.703820	 2.021906
-0.000410	 0.016638	 1.266747	 0.003713	 0.009061	-0.051286	-13.679150	-3.347902	-179.898500	 1.416992	-15.796800	-0.932553	-4.925037	 73.575950	-1.441080	-2.385833	 28.452760	 0.000004	 13.547910	-3.614583	-179.983400	-1.398203	-16.179590	 0.938804	 4.790916	 73.710320	 1.423162	 2.384658	 28.388730	 0.000004	 1.237330	 2.739552	 0.002591	 0.642204	 3.591285	 0.325048	-1.929807	-4.568581	-0.453854	-91.776230	 78.527490	-180.000000	 58.554130	 40.934560	-45.384110	-7.625644	 4.960159	-12.505480	-30.172190	-18.397970	-4.478664	-2.635965	 4.993658	 6.788941	-5.165319	 0.784187	 3.516649	-5.225038	 0.466231	 0.424329	-0.000002	-3.783157	-0.089647	-1.866307	 5.074363	 0.082691	 89.782100	 78.203900	 180.000000	 6.616700	 13.782590	 92.546280	-34.245640	-3.469248	 10.207980	 1.440063	-19.030520	-6.576691	 6.112037	 4.509576	-0.364401	 4.968462	 1.518543	-9.347576	 5.168945	 0.703820	 2.021906
-0.000415	 0.015318	 1.266690	 0.003715	 0.009058	-0.051247	-13.678300	-3.345492	-179.893800	 1.416538	-15.823560	-0.934216	-4.922879	 73.605120	-1.443858	-2.385833	 28.452760	 0.000004	 13.544210	-3.535283	-179.998400	-1.398649	-16.153550	 0.937211	 4.745385	 73.764550	 1.473073	 2.384658	 28.388730	 0.000004	 1.237116	 2.740079	 0.002575	 0.642081	 3.589459	 0.324953	-1.929438	-4.566267	-0.453688	-91.776220	 78.527470	-180.000000	 58.594700	 40.922780	-45.428680	-7.626266	 4.957533	-12.498710	-30.169710	-18.305650	-4.477101	-2.635965	 4.993658	 6.788941	-5.165319	 0.784187	 3.516649	-5.225038	 0.466231	 0.424329	-0.000002	-3.783157	-0.089647	-1.865968	 5.075454	 0.082694	 89.782090	 78.203870	 180.000000	 6.612353	 13.893430	 92.545210	-34.313820	-3.489212	 10.225690	 1.465022	-18.968650	-6.599218	 6.112037	 4.509576	-0.364401	 4.968462	 1.518543	-9.347576	 5.168945	 0.703820	 2.021906
-0.000417	 0.014183	 1.266634	 0.003713	 0.009051	-0.051240	-13.677580	-3.345506	-179.889500	 1.416077	-15.850820	-0.935910	-4.922159	 73.632420	-1.445093	-2.385833	 28.452760	 0.000004	 13.540980	-3.468978	 179.988700	-1.398969	-16.134790	 0.936060	 4.706837	 73.812870	 1.515256	 2.384658	 28.388730	 0.000004	 1.236930	 2.740533	 0.002576	 0.641971	 3.587895	 0.324903	-1.929107	-4.564275	-0.453562	-91.776180	 78.527470	 180.000000	 58.637610	 40.914230	-45.478930	-7.626637	 4.955231	-12.492770	-30.168180	-18.214920	-4.475732	-2.635965	 4.993658	 6.788941	-5.165319	 0.784187	 3.516649	-5.225038	 0.466231	 0.424329	-0.000002	-3.783157	-0.089647	-1.865701	 5.076440	 0.082698	 89.782080	 78.203890	 180.000000	 6.588633	 13.976810	 92.533010	-34.370690	-3.507930	 10.246540	 1.295173	-18.821890	-6.605909	 6.112037	 4.509576	-0.364401	 4.968462	 1.518543	-9.347576	 5.168945	 0.703820	 2.021906
-0.000414	 0.012946	 1.266561	 0.003711	 0.009045	-0.051234	-13.676800	-3.349963	-179.884500	 1.415414	-15.889690	-0.938327	-4.923713	 73.666790	-1.443999	-2.385833	 28.452760	 0.000004	 13.537500	-3.400804	 179.974400	-1.399174	-16.122540	 0.935313	 4.666663	 73.869600	 1.559306	 2.384658	 28.388730	 0.000004	 1.236720	 2.741028	 0.002575	 0.641847	 3.586221	 0.324894	-1.928747	-4.562130	-0.453439	-91.776180	 78.527470	 180.000000	 58.693490	 40.908550	-45.548200	-7.627145	 4.953092	-12.487290	-30.166830	-18.102990	-4.474119	-2.635965	 4.993658	 6.788941	-5.165319	 0.784187	 3.516649	-5.225038	 0.466231	 0.424329	-0.000002	-3.783157	-0.089647	-1.865395	 5.077480	 0.082702	 89.782170	 78.203890	 179.999900	 6.540629	 14.062010	 92.525990	-34.434390	-3.517560	 10.237320	 1.047949	-18.620660	-6.607858	 6.112037	 4.509576	-0.364401	 4.968462	 1.518543	-9.347576	 5.168945	 0.703820	 2.021906
-0.000404	 0.011583	 1.266436	 0.003720	 0.009047	-0.051197	-13.675860	-3.370874	-179.877700	 1.414123	-15.965510	-0.943046	-4.933817	 73.721500	-1.433998	-2.385833	 28.452760	 0.000004	 13.533650	-3.341574	 179.957400	-1.398860	-16.141100	 0.936451	 4.630215	 73.948100	 1.599637	 2.384658	 28.388730	 0.000004	 1.236482	 2.741568	 0.002562	 0.641709	 3.584357	 0.324836	-1.928350	-4.559767	-0.453287	-91.776220	 78.527430	-180.000000	 58.769590	 40.909520	-45.649550	-7.627779	 4.950047	-12.479490	-30.165990	-17.962980	-4.472264	-2.635965	 4.993658	 6.788941	-5.165319	 0.784187	 3.516649	-5.225038	 0.466231	 0.424329	-0.000002	-3.783157	-0.089647	-1.865039	 5.078575	 0.082703	 89.782090	 78.203870	 180.000000	 6.513468	 14.221000	 92.654900	-34.453030	-3.430437	 9.979089	 0.706385	-18.379210	-6.598887	 6.112037	 4.509576	-0.364401	 4.968462	 1.518543	-9.347576	 5.168945	 0.703820	 2.021906
-0.000391	 0.010534	 1.266316	 0.003721	 0.009045	-0.051182	-13.675160	-3.395154	-179.871800	 1.412830	-16.040730	-0.947728	-4.946038	 73.772190	-1.421717	-2.385833	 28.452760	 0.000004	 13.530700	-3.304146	 179.943700	-1.398335	-16.171830	 0.938330	 4.606114	 74.016730	 1.626539	 2.384658	 28.388730	 0.000004	 1.236301	 2.741981	 0.002559	 0.641606	 3.582925	 0.324766	-1.928040	-4.557950	-0.453158	-91.776160	 78.527470	 180.000000	 58.838500	 40.915900	-45.745870	-7.628558	 4.946979	-12.471520	-30.165500	-17.842240	-4.470757	-2.635965	 4.993658	 6.788941	-5.165319	 0.784187	 3.516649	-5.225038	 0.466231	 0.424329	-0.000002	-3.783157	-0.089647	-1.864770	 5.079445	 0.082706	 89.782010	 78.203870	-179.999900	 6.481003	 14.430130	 92.807300	-34.373620	-3.310857	 9.681302	 0.336451	-18.175970	-6.576582	 6.112037	 4.509576	-0.364401	 4.968462	 1.518543	-9.347576	 5.168945	 0.703820	 2.021906
-0.000373	 0.009186	 1.266157	 0.003722	 0.009043	-0.051180	-13.674220	-3.428188	-179.864000	 1.411096	-16.141130	-0.953988	-4.962834	 73.839210	-1.404787	-2.385833	 28.452760	 0.000004	 13.526890	-3.257739	 179.926000	-1.397608	-16.214600	 0.940951	 4.575658	 74.106480	 1.660533	 2.384658	 28.388730	 0.000004	 1.236060	 2.742512	 0.002564	 0.641461	 3.581090	 0.324815	-1.927638	-4.555615	-0.453054	-91.776120	 78.527470	 179.999900	 58.939960	 40.930940	-45.892980	-7.629754	 4.941677	-12.457880	-30.165340	-17.668730	-4.468685	-2.635965	 4.993658	 6.788941	-5.165319	 0.784187	 3.516649	-5.225038	 0.466231	 0.424329	-0.000002	-3.783157	-0.089647	-1.864412	 5.080540	 0.082708	 89.782130	 78.203890	 180.000000	 6.380389	 14.691520	 92.938030	-34.266530	-3.188025	 9.385493	-0.134862	-17.895660	-6.546672	 6.112037	 4.509576	-0.364401	 4.968462	 1.518543	-9.347576	 5.168945	 0.703820	 2.021906
-0.000357	 0.008004	 1.266039	 0.003721	 0.009035	-0.051171	-13.673420	-3.448871	-179.857900	 1.409861	-16.212100	-0.958414	-4.973233	 73.889260	-1.394463	-2.385833	 28.452760	 0.000004	 13.523580	-3.208332	 179.911200	-1.397262	-16.234360	 0.942161	 4.544187	 74.176210	 1.695300	 2.384658	 28.388730	 0.000004	 1.235847	 2.742978	 0.002564	 0.641337	 3.579523	 0.324754	-1.927276	-4.553605	-0.452914	-91.776190	 78.527470	-180.000000	 59.040500	 40.950480	-46.043820	-7.631227	 4.934999	-12.440660	-30.165390	-17.497550	-4.466735	-2.635965	 4.993658	 6.788941	-5.165319	 0.784187	 3.516649	-5.225038	 0.466231	 0.424329	-0.000002	-3.783157	-0.089647	-1.864098	 5.081504	 0.082710	 89.782150	 78.203920	 180.000000	 6.137619	 15.129880	 92.827460	-33.878470	-3.156668	 9.503718	-0.313263	-17.796490	-6.513588	 6.112037	 4.509576	-0.364401	 4.968462	 1.518543	-9.347576	 5.168945	 0.703820	 2.021906
